# xmcd CD database file
#
# Track frame offsets:
#	150
#	26622
#	46947
#	69822
#	91122
#	108498
#	135971
#	157196
#	172796
#	195746
#
# Disc length: 2920 seconds
#
# Revision: 0
# Processed by: cddbd v1.5.1PL2 Copyright (c) Steve Scherf et al.
# Submitted via: CDex 1.51
#
DISCID=730b660a
DTITLE=舘ひろし - 舞踏会 in 武道館 [CD1]
DYEAR=1984
DGENRE=Rock
TTITLE0=DANCE AWAY
TTITLE1=このままで (・・・much more than everything)
TTITLE2=口紅
TTITLE3=プールサイド・スキャンダル
TTITLE4=今夜は帰せない
TTITLE5=泣きながら
TTITLE6=女達よ
TTITLE7=熱い夜
TTITLE8=今宵焦がれて
TTITLE9=泣かないで
EXTD=YEAR: 1984
EXTT0=
EXTT1=
EXTT2=
EXTT3=
EXTT4=
EXTT5=
EXTT6=
EXTT7=
EXTT8=
EXTT9=
PLAYORDER=
